<?xml version="1.0" encoding="UTF-8" standalone="no"?>
<svg
   xmlns:dc="http://purl.org/dc/elements/1.1/"
   xmlns:cc="http://creativecommons.org/ns#"
   xmlns:rdf="http://www.w3.org/1999/02/22-rdf-syntax-ns#"
   xmlns:svg="http://www.w3.org/2000/svg"
   xmlns="http://www.w3.org/2000/svg"
   xmlns:sodipodi="http://sodipodi.sourceforge.net/DTD/sodipodi-0.dtd"
   xmlns:inkscape="http://www.inkscape.org/namespaces/inkscape"
   inkscape:version="1.0 (4035a4fb49, 2020-05-01)"
   sodipodi:docname="facebook.svg"
   xml:space="preserve"
   style="enable-background:new 0 0 310 310;"
   viewBox="0 0 310 310"
   y="0px"
   x="0px"
   id="Layer_1"
   version="1.1"><metadata
   id="metadata39"><rdf:RDF><cc:Work
       rdf:about=""><dc:format>image/svg+xml</dc:format><dc:type
         rdf:resource="http://purl.org/dc/dcmitype/StillImage" /></cc:Work></rdf:RDF></metadata><defs
   id="defs37" /><sodipodi:namedview
   inkscape:current-layer="Layer_1"
   inkscape:window-maximized="1"
   inkscape:window-y="-11"
   inkscape:window-x="-11"
   inkscape:cy="155"
   inkscape:cx="155"
   inkscape:zoom="2.7741935"
   showgrid="false"
   id="namedview35"
   inkscape:window-height="1046"
   inkscape:window-width="1920"
   inkscape:pageshadow="2"
   inkscape:pageopacity="0"
   guidetolerance="10"
   gridtolerance="10"
   objecttolerance="10"
   borderopacity="1"
   bordercolor="#666666"
   pagecolor="#ffffff" />
<g
   style="fill:#ffffff"
   id="XMLID_834_">
	<path
   style="fill:#ffffff"
   d="m 81.703,165.106 h 33.981 V 305 c 0,2.762 2.238,5 5,5 H 178.3 c 2.762,0 5,-2.238 5,-5 V 165.765 h 39.064 c 2.54,0 4.677,-1.906 4.967,-4.429 l 5.933,-51.502 c 0.163,-1.417 -0.286,-2.836 -1.234,-3.899 -0.949,-1.064 -2.307,-1.673 -3.732,-1.673 H 183.302 V 71.978 c 0,-9.732 5.24,-14.667 15.576,-14.667 1.473,0 29.42,0 29.42,0 2.762,0 5,-2.239 5,-5 V 5.037 c 0,-2.762 -2.238,-5 -5,-5 H 187.753 C 187.467,0.023 186.832,0 185.896,0 178.861,0 154.408,1.381 135.092,19.151 113.69,38.843 116.665,62.421 117.376,66.509 v 37.752 H 81.703 c -2.762,0 -5,2.238 -5,5 v 50.844 c 0,2.762 2.238,5.001 5,5.001 z"
   id="XMLID_835_" />
</g>
<g
   id="g4">
</g>
<g
   id="g6">
</g>
<g
   id="g8">
</g>
<g
   id="g10">
</g>
<g
   id="g12">
</g>
<g
   id="g14">
</g>
<g
   id="g16">
</g>
<g
   id="g18">
</g>
<g
   id="g20">
</g>
<g
   id="g22">
</g>
<g
   id="g24">
</g>
<g
   id="g26">
</g>
<g
   id="g28">
</g>
<g
   id="g30">
</g>
<g
   id="g32">
</g>
</svg>
