<?xml version="1.0" encoding="UTF-8"?>
<svg xmlns="http://www.w3.org/2000/svg" xmlns:xlink="http://www.w3.org/1999/xlink" width="200pt" height="200pt" viewBox="0 0 200 200" version="1.1">
<defs>
<filter id="alpha" filterUnits="objectBoundingBox" x="0%" y="0%" width="100%" height="100%">
  <feColorMatrix type="matrix" in="SourceGraphic" values="0 0 0 0 1 0 0 0 0 1 0 0 0 0 1 0 0 0 1 0"/>
</filter>
<mask id="mask0">
  <g filter="url(#alpha)">
<rect x="0" y="0" width="200" height="200" style="fill:rgb(0%,0%,0%);fill-opacity:0.2;stroke:none;"/>
  </g>
</mask>
<clipPath id="clip1">
  <rect x="0" y="0" width="200" height="200"/>
</clipPath>
<g id="surface5" clip-path="url(#clip1)">
<path style=" stroke:none;fill-rule:nonzero;fill:rgb(0%,0%,0%);fill-opacity:1;" d="M 116.078125 197.226562 C 116.398438 197.152344 116.714844 197.074219 117.03125 196.992188 C 117.3125 196.921875 117.589844 196.847656 117.871094 196.773438 C 117.886719 196.1875 117.910156 195.539062 117.929688 194.835938 C 118.105469 189.347656 118.515625 180.507812 119.484375 169.855469 C 119.539062 169.285156 119.589844 168.710938 119.644531 168.128906 C 119.992188 164.519531 120.394531 160.726562 120.882812 156.789062 C 120.894531 156.660156 120.914062 156.53125 120.929688 156.402344 C 121.324219 153.214844 121.769531 149.9375 122.273438 146.601562 C 122.625 144.265625 123.003906 141.90625 123.414062 139.519531 C 123.445312 139.355469 123.472656 139.1875 123.503906 139.019531 C 123.621094 138.332031 123.742188 137.644531 123.867188 136.953125 C 124.214844 135.027344 124.582031 133.089844 124.96875 131.152344 C 126.335938 124.335938 127.957031 117.476562 129.894531 110.804688 C 131.863281 103.886719 134.289062 97.105469 137.152344 90.507812 C 139.375 85.378906 142.023438 80.449219 145.066406 75.761719 C 145.109375 75.695312 145.152344 75.628906 145.199219 75.5625 C 149.089844 69.703125 153.535156 64.726562 158.613281 61.007812 L 157.558594 59.570312 C 152.695312 63.136719 148.234375 67.878906 144.175781 73.800781 C 144.152344 73.832031 144.136719 73.859375 144.117188 73.886719 C 141.0625 78.414062 138.398438 83.191406 136.152344 88.164062 C 133.140625 94.820312 130.601562 101.679688 128.554688 108.6875 C 126.613281 115.203125 124.871094 122.261719 123.332031 129.863281 C 122.789062 132.542969 122.273438 135.285156 121.78125 138.09375 C 121.699219 138.574219 121.617188 139.054688 121.53125 139.535156 C 121.53125 139.542969 121.53125 139.550781 121.53125 139.554688 C 121.402344 140.296875 121.28125 141.035156 121.15625 141.785156 C 120.847656 143.667969 120.558594 145.539062 120.285156 147.394531 C 119.867188 150.25 119.488281 153.058594 119.148438 155.820312 C 119.035156 156.730469 118.925781 157.636719 118.824219 158.53125 C 118.675781 159.796875 118.535156 161.046875 118.402344 162.28125 C 118.214844 163.996094 118.046875 165.675781 117.890625 167.320312 L 117.847656 167.773438 C 117.824219 168.03125 117.796875 168.292969 117.773438 168.550781 C 116.574219 181.507812 116.199219 191.96875 116.078125 197.226562 Z M 116.078125 197.226562 "/>
</g>
<mask id="mask1">
  <g filter="url(#alpha)">
<rect x="0" y="0" width="200" height="200" style="fill:rgb(0%,0%,0%);fill-opacity:0.2;stroke:none;"/>
  </g>
</mask>
<clipPath id="clip2">
  <rect x="0" y="0" width="200" height="200"/>
</clipPath>
<g id="surface8" clip-path="url(#clip2)">
<path style=" stroke:none;fill-rule:nonzero;fill:rgb(0%,0%,0%);fill-opacity:1;" d="M 138.761719 188.730469 C 138.792969 188.714844 138.828125 188.695312 138.859375 188.675781 C 139.46875 188.359375 140.074219 188.039062 140.675781 187.707031 C 140.875 185.347656 141.140625 182.75 141.492188 180.023438 C 141.566406 179.460938 141.640625 178.890625 141.722656 178.316406 C 141.761719 178.007812 141.808594 177.699219 141.851562 177.382812 C 142.203125 174.980469 142.617188 172.503906 143.113281 170.011719 C 145.132812 159.847656 148.488281 149.457031 154.058594 143.042969 C 154.359375 142.695312 154.664062 142.363281 154.980469 142.042969 C 155.765625 141.226562 156.617188 140.480469 157.527344 139.808594 L 156.472656 138.371094 C 155.203125 139.3125 154.03125 140.382812 152.980469 141.566406 C 152.613281 141.976562 152.25 142.40625 151.898438 142.847656 C 146.773438 149.300781 143.570312 158.855469 141.578125 168.3125 C 141.054688 170.78125 140.617188 173.246094 140.246094 175.644531 C 140.152344 176.273438 140.058594 176.894531 139.972656 177.507812 C 139.394531 181.574219 139.015625 185.414062 138.761719 188.730469 Z M 138.761719 188.730469 "/>
</g>
<mask id="mask2">
  <g filter="url(#alpha)">
<rect x="0" y="0" width="200" height="200" style="fill:rgb(0%,0%,0%);fill-opacity:0.2;stroke:none;"/>
  </g>
</mask>
<clipPath id="clip3">
  <rect x="0" y="0" width="200" height="200"/>
</clipPath>
<g id="surface11" clip-path="url(#clip3)">
<path style=" stroke:none;fill-rule:nonzero;fill:rgb(0%,0%,0%);fill-opacity:1;" d="M 177.464844 52.066406 C 177.464844 56.980469 173.476562 60.96875 168.5625 60.96875 C 163.644531 60.96875 159.660156 56.980469 159.660156 52.066406 C 159.660156 47.148438 163.644531 43.164062 168.5625 43.164062 C 173.476562 43.164062 177.464844 47.148438 177.464844 52.066406 Z M 177.464844 52.066406 "/>
</g>
<mask id="mask3">
  <g filter="url(#alpha)">
<rect x="0" y="0" width="200" height="200" style="fill:rgb(0%,0%,0%);fill-opacity:0.2;stroke:none;"/>
  </g>
</mask>
<clipPath id="clip4">
  <rect x="0" y="0" width="200" height="200"/>
</clipPath>
<g id="surface14" clip-path="url(#clip4)">
<path style=" stroke:none;fill-rule:nonzero;fill:rgb(0%,0%,0%);fill-opacity:1;" d="M 174.597656 128.695312 C 174.597656 133.613281 170.609375 137.597656 165.695312 137.597656 C 160.777344 137.597656 156.792969 133.613281 156.792969 128.695312 C 156.792969 123.777344 160.777344 119.792969 165.695312 119.792969 C 170.609375 119.792969 174.597656 123.777344 174.597656 128.695312 Z M 174.597656 128.695312 "/>
</g>
<mask id="mask4">
  <g filter="url(#alpha)">
<rect x="0" y="0" width="200" height="200" style="fill:rgb(0%,0%,0%);fill-opacity:0.2;stroke:none;"/>
  </g>
</mask>
<clipPath id="clip5">
  <rect x="0" y="0" width="200" height="200"/>
</clipPath>
<g id="surface17" clip-path="url(#clip5)">
<path style=" stroke:none;fill-rule:nonzero;fill:rgb(0%,0%,0%);fill-opacity:1;" d="M 133.21875 67.019531 C 135.109375 77.667969 130.941406 87.3125 130.941406 87.3125 C 130.941406 87.3125 123.714844 79.6875 121.824219 69.039062 C 119.9375 58.386719 124.105469 48.746094 124.105469 48.746094 C 124.105469 48.746094 131.332031 56.367188 133.21875 67.019531 Z M 133.21875 67.019531 "/>
</g>
<mask id="mask5">
  <g filter="url(#alpha)">
<rect x="0" y="0" width="200" height="200" style="fill:rgb(0%,0%,0%);fill-opacity:0.2;stroke:none;"/>
  </g>
</mask>
<clipPath id="clip6">
  <rect x="0" y="0" width="200" height="200"/>
</clipPath>
<g id="surface20" clip-path="url(#clip6)">
<path style=" stroke:none;fill-rule:nonzero;fill:rgb(0%,0%,0%);fill-opacity:1;" d="M 162.804688 92.300781 C 152.648438 96.015625 142.441406 93.628906 142.441406 93.628906 C 142.441406 93.628906 148.703125 85.222656 158.859375 81.507812 C 169.019531 77.792969 179.226562 80.179688 179.226562 80.179688 C 179.226562 80.179688 172.964844 88.585938 162.804688 92.300781 Z M 162.804688 92.300781 "/>
</g>
<mask id="mask6">
  <g filter="url(#alpha)">
<rect x="0" y="0" width="200" height="200" style="fill:rgb(0%,0%,0%);fill-opacity:0.2;stroke:none;"/>
  </g>
</mask>
<clipPath id="clip7">
  <rect x="0" y="0" width="200" height="200"/>
</clipPath>
<g id="surface23" clip-path="url(#clip7)">
<path style=" stroke:none;fill-rule:nonzero;fill:rgb(0%,0%,0%);fill-opacity:1;" d="M 164.527344 160.15625 C 157.40625 162.761719 150.242188 161.0625 150.242188 161.0625 C 150.242188 161.0625 154.621094 155.144531 161.742188 152.539062 C 168.863281 149.9375 176.027344 151.632812 176.027344 151.632812 C 176.027344 151.632812 171.648438 157.554688 164.527344 160.15625 Z M 164.527344 160.15625 "/>
</g>
</defs>
<g id="surface1">
<path style=" stroke:none;fill-rule:nonzero;fill:rgb(42.352941%,38.823529%,100%);fill-opacity:1;" d="M 200 100 C 200.015625 112.847656 197.550781 125.574219 192.738281 137.484375 C 192.726562 137.511719 192.714844 137.535156 192.703125 137.5625 L 192.703125 137.566406 C 189.46875 145.539062 185.214844 153.0625 180.042969 159.945312 C 179.046875 161.273438 178.019531 162.578125 176.957031 163.855469 C 176.570312 164.324219 176.175781 164.785156 175.785156 165.246094 C 173.757812 167.597656 171.625 169.851562 169.386719 172.007812 C 168.867188 172.507812 168.339844 173.007812 167.808594 173.496094 C 167.683594 173.613281 167.558594 173.726562 167.433594 173.839844 C 164.828125 176.222656 162.097656 178.464844 159.253906 180.554688 C 157.347656 181.96875 155.386719 183.308594 153.378906 184.578125 C 152.9375 184.859375 152.492188 185.132812 152.046875 185.40625 C 151.273438 185.878906 150.488281 186.339844 149.703125 186.792969 C 148.671875 187.382812 147.628906 187.957031 146.574219 188.511719 C 146.148438 188.738281 145.71875 188.957031 145.289062 189.175781 C 144.664062 189.5 144.03125 189.8125 143.394531 190.117188 C 143.285156 190.167969 143.175781 190.222656 143.066406 190.273438 C 142.652344 190.472656 142.234375 190.667969 141.8125 190.863281 C 136.34375 193.386719 130.652344 195.40625 124.8125 196.894531 C 124.78125 196.90625 124.75 196.910156 124.71875 196.921875 C 124.335938 197.019531 123.953125 197.113281 123.566406 197.203125 C 123.28125 197.273438 122.992188 197.34375 122.703125 197.410156 C 122.664062 197.421875 122.628906 197.429688 122.589844 197.433594 C 121.996094 197.574219 121.402344 197.707031 120.800781 197.828125 C 120.464844 197.898438 120.128906 197.96875 119.789062 198.039062 C 119.585938 198.082031 119.378906 198.121094 119.175781 198.160156 C 118.917969 198.210938 118.664062 198.257812 118.40625 198.308594 C 118.261719 198.335938 118.121094 198.359375 117.976562 198.382812 C 117.652344 198.445312 117.324219 198.503906 117.003906 198.558594 C 116.453125 198.652344 115.894531 198.746094 115.34375 198.828125 C 114.941406 198.890625 114.542969 198.949219 114.140625 199.007812 C 113.664062 199.074219 113.191406 199.136719 112.714844 199.195312 C 112.585938 199.214844 112.457031 199.230469 112.324219 199.246094 C 112.15625 199.265625 111.988281 199.285156 111.820312 199.308594 C 111.480469 199.347656 111.140625 199.386719 110.796875 199.421875 C 110.617188 199.445312 110.445312 199.460938 110.265625 199.480469 C 109.929688 199.515625 109.589844 199.546875 109.253906 199.578125 C 108.820312 199.617188 108.382812 199.652344 107.945312 199.6875 C 107.414062 199.730469 106.882812 199.769531 106.347656 199.800781 C 106.007812 199.824219 105.664062 199.84375 105.316406 199.859375 C 104.433594 199.910156 103.554688 199.941406 102.664062 199.964844 C 102.226562 199.976562 101.78125 199.984375 101.335938 199.992188 L 101.328125 199.992188 C 100.886719 199.996094 100.445312 200 100 200 C 95.503906 200 91.011719 199.703125 86.554688 199.101562 C 83.285156 198.664062 80.066406 198.070312 76.902344 197.320312 C 76.773438 197.289062 76.648438 197.261719 76.523438 197.226562 C 76.203125 197.152344 75.886719 197.074219 75.570312 196.992188 C 75.289062 196.921875 75.011719 196.847656 74.730469 196.773438 C 67.488281 194.890625 60.480469 192.191406 53.84375 188.730469 C 53.8125 188.714844 53.773438 188.695312 53.742188 188.675781 C 53.550781 188.578125 53.359375 188.480469 53.171875 188.375 C 52.753906 188.15625 52.339844 187.933594 51.925781 187.707031 C 49.574219 186.414062 47.28125 185.03125 45.050781 183.558594 C 44.476562 183.183594 43.910156 182.800781 43.347656 182.414062 C 43.164062 182.289062 42.988281 182.164062 42.8125 182.042969 C 42.625 181.910156 42.4375 181.78125 42.253906 181.652344 C 41.765625 181.304688 41.28125 180.953125 40.796875 180.601562 C 38.800781 179.132812 36.863281 177.59375 34.984375 175.980469 C 28.328125 170.28125 22.441406 163.730469 17.480469 156.5 C 15.75 153.980469 14.136719 151.378906 12.636719 148.695312 C 4.324219 133.8125 -0.0273438 117.046875 0 100 C 0 44.773438 44.773438 0 100 0 C 155.226562 0 200 44.773438 200 100 Z M 200 100 "/>
<use xlink:href="#surface5" mask="url(#mask0)"/>
<use xlink:href="#surface8" mask="url(#mask1)"/>
<use xlink:href="#surface11" mask="url(#mask2)"/>
<use xlink:href="#surface14" mask="url(#mask3)"/>
<use xlink:href="#surface17" mask="url(#mask4)"/>
<use xlink:href="#surface20" mask="url(#mask5)"/>
<use xlink:href="#surface23" mask="url(#mask6)"/>
<path style=" stroke:none;fill-rule:nonzero;fill:rgb(18.431373%,18.039216%,25.490196%);fill-opacity:1;" d="M 130.164062 158.660156 L 130.527344 158.847656 C 130.492188 159.230469 130.40625 159.46875 130.164062 158.660156 Z M 130.164062 158.660156 "/>
<path style=" stroke:none;fill-rule:nonzero;fill:rgb(18.431373%,18.039216%,25.490196%);fill-opacity:1;" d="M 130.640625 158.785156 C 130.644531 158.824219 130.652344 158.871094 130.652344 158.910156 L 130.527344 158.847656 C 130.53125 158.808594 130.53125 158.765625 130.539062 158.726562 C 130.566406 158.207031 130.53125 157.59375 130.640625 158.785156 Z M 130.640625 158.785156 "/>
<path style=" stroke:none;fill-rule:nonzero;fill:rgb(18.431373%,18.039216%,25.490196%);fill-opacity:1;" d="M 140.796875 96.046875 C 140.796875 122.878906 119.046875 144.628906 92.214844 144.628906 C 65.382812 144.628906 43.632812 122.878906 43.632812 96.046875 C 43.632812 69.214844 65.382812 47.464844 92.214844 47.464844 C 119.046875 47.464844 140.796875 69.214844 140.796875 96.046875 Z M 140.796875 96.046875 "/>
<path style=" stroke:none;fill-rule:nonzero;fill:rgb(81.568627%,80.392157%,88.235294%);fill-opacity:1;" d="M 125.632812 113.230469 C 125.632812 129.476562 112.460938 142.648438 96.214844 142.648438 C 79.964844 142.648438 66.792969 129.476562 66.792969 113.230469 C 66.792969 96.980469 79.964844 83.808594 96.214844 83.808594 C 112.460938 83.808594 125.632812 96.980469 125.632812 113.230469 Z M 125.632812 113.230469 "/>
<path style=" stroke:none;fill-rule:nonzero;fill:rgb(81.568627%,80.392157%,88.235294%);fill-opacity:1;" d="M 163.394531 169.617188 L 163.359375 169.628906 L 156.515625 171.269531 L 142.265625 174.6875 L 140.324219 175.15625 L 118.652344 180.355469 L 116.8125 180.796875 L 64.242188 193.414062 C 60.6875 192.054688 57.214844 190.492188 53.84375 188.730469 C 53.8125 188.714844 53.773438 188.695312 53.742188 188.675781 C 53.550781 188.578125 53.359375 188.480469 53.171875 188.375 C 52.753906 188.15625 52.339844 187.933594 51.925781 187.707031 C 49.574219 186.414062 47.28125 185.03125 45.050781 183.558594 C 44.476562 183.183594 43.910156 182.800781 43.347656 182.414062 C 43.164062 182.289062 42.988281 182.164062 42.8125 182.042969 C 42.625 181.910156 42.4375 181.78125 42.253906 181.652344 C 41.765625 181.304688 41.28125 180.953125 40.796875 180.601562 C 45.90625 171.320312 58.066406 165.152344 70.226562 161.773438 C 79.402344 159.226562 81.421875 150.84375 81.246094 143.382812 C 81.203125 141.683594 81.058594 139.984375 80.8125 138.300781 C 80.441406 135.621094 79.851562 132.976562 79.050781 130.390625 L 108.472656 131.371094 L 111.507812 138.367188 C 111.425781 139.136719 111.398438 139.910156 111.429688 140.679688 C 111.660156 146.417969 115.203125 150.128906 119.570312 152.519531 C 120.140625 152.832031 120.722656 153.121094 121.3125 153.390625 C 128.480469 156.648438 136.914062 156.871094 136.914062 156.871094 C 139.484375 156.585938 142.078125 156.632812 144.632812 157.015625 C 145.253906 157.109375 145.859375 157.222656 146.445312 157.355469 C 149.863281 158.121094 153.09375 159.566406 155.945312 161.605469 C 157.03125 162.378906 158.0625 163.234375 159.023438 164.160156 C 160.734375 165.761719 162.207031 167.597656 163.394531 169.617188 Z M 163.394531 169.617188 "/>
<path style=" stroke:none;fill-rule:nonzero;fill:rgb(81.568627%,80.392157%,88.235294%);fill-opacity:1;" d="M 167.808594 173.496094 C 167.683594 173.613281 167.558594 173.726562 167.433594 173.839844 C 164.828125 176.222656 162.097656 178.464844 159.253906 180.554688 C 157.347656 181.96875 155.386719 183.308594 153.378906 184.578125 C 152.9375 184.859375 152.492188 185.132812 152.046875 185.40625 C 151.273438 185.878906 150.488281 186.339844 149.703125 186.792969 C 148.671875 187.382812 147.628906 187.957031 146.574219 188.511719 C 146.148438 188.738281 145.71875 188.957031 145.289062 189.175781 C 144.664062 189.5 144.03125 189.8125 143.394531 190.117188 C 143.285156 190.167969 143.175781 190.222656 143.066406 190.273438 L 141.816406 189.234375 L 156.515625 171.269531 L 159.46875 167.65625 C 159.46875 167.65625 160.652344 167.65625 163.359375 169.628906 C 164.855469 170.742188 166.269531 171.960938 167.589844 173.277344 C 167.660156 173.351562 167.734375 173.421875 167.808594 173.496094 Z M 167.808594 173.496094 "/>
<path style=" stroke:none;fill-rule:nonzero;fill:rgb(18.431373%,18.039216%,25.490196%);fill-opacity:1;" d="M 167.601562 173.296875 C 167.5625 173.480469 167.503906 173.664062 167.433594 173.839844 C 164.828125 176.222656 162.097656 178.464844 159.253906 180.554688 C 156.789062 181.445312 154.226562 182.054688 151.625 182.371094 C 151.625 182.371094 151.847656 183.480469 152.046875 185.40625 C 151.273438 185.878906 150.488281 186.339844 149.703125 186.792969 C 148.671875 187.382812 147.628906 187.957031 146.574219 188.511719 C 146.148438 188.738281 145.71875 188.957031 145.289062 189.175781 C 144.664062 189.5 144.03125 189.8125 143.394531 190.117188 C 143.285156 190.167969 143.175781 190.222656 143.066406 190.273438 C 142.652344 190.472656 142.234375 190.667969 141.8125 190.863281 C 136.34375 193.386719 130.652344 195.40625 124.8125 196.894531 C 124.78125 196.90625 124.75 196.910156 124.71875 196.921875 C 124.335938 197.019531 123.953125 197.113281 123.566406 197.203125 C 123.28125 197.273438 122.992188 197.34375 122.703125 197.410156 C 122.664062 197.421875 122.628906 197.429688 122.589844 197.433594 C 121.996094 197.574219 121.402344 197.707031 120.800781 197.828125 C 120.464844 197.898438 120.128906 197.96875 119.789062 198.039062 C 119.585938 198.082031 119.378906 198.121094 119.175781 198.160156 C 118.917969 198.210938 118.664062 198.257812 118.40625 198.308594 C 118.261719 198.335938 118.121094 198.359375 117.976562 198.382812 C 117.652344 198.445312 117.324219 198.503906 117.003906 198.558594 C 116.453125 198.652344 115.894531 198.746094 115.34375 198.828125 C 114.941406 198.890625 114.542969 198.949219 114.140625 199.007812 C 113.664062 199.074219 113.191406 199.136719 112.714844 199.195312 C 112.585938 199.214844 112.457031 199.230469 112.324219 199.246094 C 112.15625 199.265625 111.988281 199.285156 111.820312 199.308594 C 111.480469 199.347656 111.140625 199.386719 110.796875 199.421875 C 110.617188 199.445312 110.445312 199.460938 110.265625 199.480469 C 109.929688 199.515625 109.589844 199.546875 109.253906 199.578125 C 108.820312 199.617188 108.382812 199.652344 107.945312 199.6875 C 107.414062 199.730469 106.882812 199.769531 106.347656 199.800781 C 106.007812 199.824219 105.664062 199.84375 105.316406 199.859375 C 104.433594 199.910156 103.554688 199.941406 102.664062 199.964844 C 102.226562 199.976562 101.78125 199.984375 101.335938 199.992188 L 101.328125 199.992188 C 100.886719 199.996094 100.445312 200 100 200 C 95.503906 200 91.011719 199.703125 86.554688 199.101562 C 83.285156 198.664062 80.066406 198.070312 76.902344 197.320312 C 76.773438 197.289062 76.648438 197.261719 76.523438 197.226562 C 76.203125 197.152344 75.886719 197.074219 75.570312 196.992188 C 75.289062 196.921875 75.011719 196.847656 74.730469 196.773438 C 67.488281 194.890625 60.480469 192.191406 53.84375 188.730469 C 53.8125 188.714844 53.773438 188.695312 53.742188 188.675781 C 53.550781 188.578125 53.359375 188.480469 53.171875 188.375 C 69.410156 184.589844 95.074219 178.625 117.34375 173.511719 C 117.96875 173.371094 118.585938 173.226562 119.203125 173.085938 C 127.429688 171.199219 135.132812 169.441406 141.652344 167.96875 C 142.324219 167.820312 142.984375 167.671875 143.632812 167.527344 C 150.636719 165.953125 156.074219 164.757812 159.023438 164.160156 C 159.820312 163.976562 160.621094 163.835938 161.433594 163.738281 L 167.589844 173.277344 Z M 167.601562 173.296875 "/>
<path style=" stroke:none;fill-rule:nonzero;fill:rgb(18.431373%,18.039216%,25.490196%);fill-opacity:1;" d="M 62.238281 60.902344 C 62.238281 68.894531 55.757812 75.375 47.765625 75.375 C 39.773438 75.375 33.292969 68.894531 33.292969 60.902344 C 33.292969 52.910156 39.773438 46.429688 47.765625 46.429688 C 55.757812 46.429688 62.238281 52.910156 62.238281 60.902344 Z M 62.238281 60.902344 "/>
<path style=" stroke:none;fill-rule:nonzero;fill:rgb(18.431373%,18.039216%,25.490196%);fill-opacity:1;" d="M 151.132812 56.769531 C 151.132812 64.761719 144.652344 71.238281 136.660156 71.238281 C 128.667969 71.238281 122.191406 64.761719 122.191406 56.769531 C 122.191406 48.777344 128.667969 42.296875 136.660156 42.296875 C 144.652344 42.296875 151.132812 48.777344 151.132812 56.769531 Z M 151.132812 56.769531 "/>
<path style=" stroke:none;fill-rule:nonzero;fill:rgb(18.431373%,18.039216%,25.490196%);fill-opacity:1;" d="M 121.15625 50.566406 C 121.15625 43.175781 126.730469 36.972656 134.078125 36.179688 C 128.5625 35.578125 123.191406 38.179688 120.246094 42.878906 C 117.296875 47.582031 117.296875 53.550781 120.246094 58.25 C 123.191406 62.953125 128.5625 65.554688 134.078125 64.953125 C 126.730469 64.160156 121.15625 57.957031 121.15625 50.566406 Z M 121.15625 50.566406 "/>
<path style=" stroke:none;fill-rule:nonzero;fill:rgb(18.431373%,18.039216%,25.490196%);fill-opacity:1;" d="M 31.597656 72.609375 C 26.425781 67.328125 26.0625 59 30.757812 53.289062 C 26.398438 56.71875 24.378906 62.339844 25.566406 67.757812 C 26.75 73.175781 30.929688 77.441406 36.324219 78.738281 C 41.71875 80.03125 47.375 78.128906 50.894531 73.839844 C 45.089844 78.417969 36.769531 77.886719 31.597656 72.609375 Z M 31.597656 72.609375 "/>
<path style=" stroke:none;fill-rule:nonzero;fill:rgb(18.431373%,18.039216%,25.490196%);fill-opacity:1;" d="M 92.214844 73.308594 C 75.085938 73.308594 61.203125 81.40625 61.203125 91.394531 C 61.203125 95.867188 63.996094 99.953125 68.601562 103.109375 L 74.570312 98.78125 L 72.949219 105.558594 C 73.621094 105.871094 74.308594 106.171875 75.027344 106.453125 L 83.945312 96.046875 L 83.945312 108.828125 C 86.679688 109.269531 89.445312 109.488281 92.214844 109.484375 C 109.339844 109.484375 123.222656 101.386719 123.222656 91.394531 C 123.222656 81.40625 109.339844 73.308594 92.214844 73.308594 Z M 92.214844 73.308594 "/>
<path style=" stroke:none;fill-rule:nonzero;fill:rgb(18.431373%,18.039216%,25.490196%);fill-opacity:1;" d="M 122.191406 56.769531 C 122.191406 56.769531 119.941406 67.105469 133.988281 71.238281 Z M 122.191406 56.769531 "/>
<path style=" stroke:none;fill-rule:nonzero;fill:rgb(18.431373%,18.039216%,25.490196%);fill-opacity:1;" d="M 61.203125 58.648438 C 61.203125 58.648438 66.371094 70.207031 50.867188 75.375 Z M 61.203125 58.648438 "/>
<path style=" stroke:none;fill-rule:nonzero;fill:rgb(81.568627%,80.392157%,88.235294%);fill-opacity:1;" d="M 69.644531 118.453125 C 68.765625 115.324219 67 113.082031 65.695312 113.445312 C 64.390625 113.8125 64.046875 116.644531 64.921875 119.773438 C 65.796875 122.902344 67.5625 125.144531 68.867188 124.78125 C 70.171875 124.414062 70.519531 121.582031 69.644531 118.453125 Z M 69.644531 118.453125 "/>
<path style=" stroke:none;fill-rule:nonzero;fill:rgb(81.568627%,80.392157%,88.235294%);fill-opacity:1;" d="M 126.488281 108.335938 C 125.136719 108.253906 123.878906 110.816406 123.679688 114.058594 C 123.476562 117.300781 124.410156 120 125.761719 120.082031 C 127.113281 120.164062 128.371094 117.605469 128.570312 114.359375 C 128.773438 111.117188 127.839844 108.417969 126.488281 108.335938 Z M 126.488281 108.335938 "/>
</g>
</svg>
