<?xml version="1.0" encoding="UTF-8" standalone="no"?>
<svg
   xmlns:dc="http://purl.org/dc/elements/1.1/"
   xmlns:cc="http://creativecommons.org/ns#"
   xmlns:rdf="http://www.w3.org/1999/02/22-rdf-syntax-ns#"
   xmlns:svg="http://www.w3.org/2000/svg"
   xmlns="http://www.w3.org/2000/svg"
   xmlns:sodipodi="http://sodipodi.sourceforge.net/DTD/sodipodi-0.dtd"
   xmlns:inkscape="http://www.inkscape.org/namespaces/inkscape"
   inkscape:version="1.0 (4035a4fb49, 2020-05-01)"
   sodipodi:docname="website.svg"
   xml:space="preserve"
   style="enable-background:new 0 0 477.73 477.73;"
   viewBox="0 0 477.73 477.73"
   y="0px"
   x="0px"
   id="Capa_1"
   version="1.1"><metadata
   id="metadata43"><rdf:RDF><cc:Work
       rdf:about=""><dc:format>image/svg+xml</dc:format><dc:type
         rdf:resource="http://purl.org/dc/dcmitype/StillImage" /></cc:Work></rdf:RDF></metadata><defs
   id="defs41" /><sodipodi:namedview
   inkscape:current-layer="Capa_1"
   inkscape:window-maximized="1"
   inkscape:window-y="-11"
   inkscape:window-x="-11"
   inkscape:cy="238.86501"
   inkscape:cx="238.86501"
   inkscape:zoom="1.80018"
   showgrid="false"
   id="namedview39"
   inkscape:window-height="1046"
   inkscape:window-width="1920"
   inkscape:pageshadow="2"
   inkscape:pageopacity="0"
   guidetolerance="10"
   gridtolerance="10"
   objecttolerance="10"
   borderopacity="1"
   bordercolor="#666666"
   pagecolor="#ffffff" />
<g
   style="fill:#ffffff"
   id="g6">
	<g
   style="fill:#ffffff"
   id="g4">
		<path
   style="fill:#ffffff"
   id="path2"
   d="m 433.562,100.983 c -0.008,-0.154 -0.025,-0.308 -0.051,-0.461 -0.597,-0.853 -1.331,-1.587 -1.946,-2.423 -4.46,-6.076 -9.182,-11.924 -14.165,-17.545 -1.365,-1.536 -2.731,-3.055 -4.13,-4.557 -5.131,-5.495 -10.513,-10.735 -16.145,-15.718 -1.041,-0.922 -2.014,-1.877 -3.055,-2.782 -13.88,-11.891 -29.078,-22.153 -45.295,-30.583 -0.649,-0.341 -1.331,-0.631 -1.997,-0.973 -7.222,-3.67 -14.627,-6.969 -22.187,-9.882 -1.707,-0.614 -3.26,-1.195 -4.881,-1.707 C 312.986,11.929 306.159,9.807 299.23,7.986 297.182,7.44 295.134,6.877 293.052,6.399 286.225,4.812 279.399,3.6 272.418,2.61 270.302,2.303 268.22,1.893 266.086,1.637 c -17.979,-2.185 -36.156,-2.185 -54.136,0 -2.133,0.256 -4.215,0.666 -6.332,0.973 -6.98,0.99 -13.875,2.202 -20.634,3.789 -2.082,0.478 -4.13,1.041 -6.178,1.587 -6.975,1.82 -13.801,3.942 -20.48,6.366 -1.707,0.58 -3.26,1.161 -4.881,1.707 -7.559,2.913 -14.965,6.211 -22.187,9.882 -0.666,0.341 -1.348,0.631 -1.997,0.973 -16.271,8.421 -31.52,18.682 -45.449,30.583 -1.041,0.904 -2.014,1.86 -3.055,2.782 -5.689,5.006 -11.071,10.246 -16.145,15.718 -1.399,1.502 -2.765,3.021 -4.13,4.557 -4.995,5.609 -9.717,11.457 -14.165,17.544 -0.614,0.836 -1.348,1.57 -1.946,2.423 -0.078,0.149 -0.147,0.303 -0.205,0.461 -58.866,82.497 -58.866,193.267 0,275.763 0.058,0.158 0.126,0.312 0.205,0.461 0.597,0.853 1.331,1.587 1.946,2.423 4.449,6.076 9.17,11.924 14.165,17.545 1.365,1.536 2.731,3.055 4.13,4.557 5.143,5.495 10.524,10.735 16.145,15.718 1.041,0.922 2.014,1.877 3.055,2.782 13.88,11.891 29.078,22.153 45.295,30.583 0.649,0.341 1.331,0.631 1.997,0.973 7.222,3.67 14.627,6.969 22.187,9.882 1.707,0.614 3.26,1.195 4.881,1.707 6.724,2.423 13.551,4.545 20.48,6.366 2.048,0.546 4.096,1.109 6.178,1.587 6.827,1.587 13.653,2.799 20.634,3.789 2.116,0.307 4.198,0.717 6.332,0.973 17.979,2.185 36.156,2.185 54.136,0 2.133,-0.256 4.215,-0.666 6.332,-0.973 6.98,-0.99 13.875,-2.202 20.634,-3.789 2.082,-0.478 4.13,-1.041 6.178,-1.587 6.986,-1.82 13.813,-3.942 20.48,-6.366 1.707,-0.58 3.26,-1.161 4.881,-1.707 7.559,-2.913 14.965,-6.211 22.187,-9.882 0.666,-0.341 1.348,-0.631 1.997,-0.973 16.217,-8.431 31.415,-18.692 45.295,-30.583 1.041,-0.905 2.014,-1.86 3.055,-2.782 5.689,-4.995 11.071,-10.234 16.145,-15.718 1.399,-1.502 2.765,-3.021 4.13,-4.557 4.995,-5.621 9.717,-11.469 14.165,-17.545 0.614,-0.836 1.348,-1.57 1.946,-2.423 0.078,-0.149 0.147,-0.303 0.205,-0.461 58.866,-82.495 58.866,-193.265 0,-275.762 z m -19.473,32.291 c 16.322,26.881 26.178,57.185 28.791,88.525 H 340.651 c -1.252,-20.336 -4.452,-40.504 -9.557,-60.228 28.877,-5.408 56.828,-14.938 82.995,-28.297 z M 282.368,38.775 c 0.956,0.222 1.877,0.529 2.833,0.751 6.11,1.434 12.169,3.072 18.091,5.12 0.905,0.307 1.792,0.666 2.68,0.99 5.871,2.048 11.656,4.318 17.323,6.827 0.99,0.461 1.963,0.973 2.953,1.434 5.427,2.583 10.729,5.376 15.906,8.38 l 3.413,2.065 c 4.915,3.004 9.694,6.218 14.336,9.643 1.195,0.87 2.389,1.707 3.567,2.662 4.551,3.413 8.909,7.071 13.073,10.974 1.092,0.99 2.219,1.963 3.294,2.987 4.369,4.147 8.533,8.533 12.561,13.073 0.512,0.597 1.058,1.143 1.57,1.707 -23.109,11.013 -47.59,18.877 -72.789,23.381 -11.674,-32.092 -27.095,-62.694 -45.943,-91.17 2.37,0.426 4.794,0.665 7.132,1.176 z m -111.07,183.023 c 1.346,-18.466 4.49,-36.757 9.387,-54.613 19.337,2.297 38.793,3.436 58.266,3.413 19.491,-0.006 38.965,-1.174 58.317,-3.499 4.888,17.885 8.015,36.205 9.335,54.699 z m 135.305,34.134 c -1.346,18.466 -4.49,36.757 -9.387,54.613 -19.337,-2.297 -38.793,-3.436 -58.266,-3.413 -19.49,-0.022 -38.963,1.117 -58.317,3.413 -4.883,-17.857 -8.009,-36.148 -9.336,-54.613 z M 238.95,45.193 c 19.422,27.527 35.396,57.332 47.565,88.747 -15.799,1.678 -31.676,2.521 -47.565,2.526 -15.871,-0.019 -31.731,-0.867 -47.514,-2.543 12.184,-31.394 28.139,-61.189 47.514,-88.73 z m -153.429,58.47 c 4.011,-4.54 8.192,-8.926 12.561,-13.073 1.075,-1.024 2.202,-1.997 3.294,-2.987 4.21,-3.834 8.568,-7.492 13.073,-10.974 1.178,-0.905 2.372,-1.707 3.567,-2.662 4.642,-3.413 9.421,-6.628 14.336,-9.643 l 3.413,-2.065 c 5.177,-3.026 10.479,-5.82 15.906,-8.38 0.99,-0.461 1.963,-0.973 2.953,-1.434 5.666,-2.56 11.452,-4.83 17.323,-6.827 0.887,-0.324 1.707,-0.683 2.679,-0.99 5.922,-1.98 11.947,-3.618 18.091,-5.12 0.956,-0.222 1.877,-0.529 2.85,-0.734 2.338,-0.512 4.762,-0.751 7.134,-1.178 -18.856,28.481 -34.282,59.089 -45.961,91.187 -25.199,-4.504 -49.681,-12.368 -72.789,-23.381 0.512,-0.596 1.058,-1.142 1.57,-1.739 z m -21.709,29.611 c 26.161,13.358 54.106,22.888 82.978,28.297 -5.099,19.725 -8.294,39.893 -9.54,60.228 H 35.021 c 2.614,-31.34 12.47,-61.644 28.791,-88.525 z m 0,211.183 C 47.49,317.576 37.634,287.272 35.021,255.932 H 137.25 c 1.252,20.336 4.452,40.504 9.557,60.228 -28.877,5.407 -56.828,14.937 -82.995,28.297 z m 131.721,94.498 c -0.956,-0.222 -1.877,-0.529 -2.833,-0.751 -6.11,-1.434 -12.169,-3.072 -18.091,-5.12 -0.905,-0.307 -1.792,-0.666 -2.68,-0.99 -5.871,-2.048 -11.656,-4.318 -17.323,-6.827 -0.99,-0.461 -1.963,-0.973 -2.953,-1.434 -5.427,-2.583 -10.729,-5.376 -15.906,-8.38 l -3.413,-2.065 c -4.915,-3.004 -9.694,-6.218 -14.336,-9.643 -1.195,-0.87 -2.389,-1.707 -3.567,-2.662 -4.551,-3.413 -8.909,-7.071 -13.073,-10.974 -1.092,-0.99 -2.219,-1.963 -3.294,-2.987 -4.369,-4.147 -8.533,-8.533 -12.561,-13.073 -0.512,-0.597 -1.058,-1.143 -1.57,-1.707 23.109,-11.013 47.59,-18.877 72.789,-23.381 11.674,32.092 27.095,62.694 45.943,91.17 -2.371,-0.425 -4.794,-0.664 -7.132,-1.176 z m 43.417,-6.417 c -19.422,-27.527 -35.396,-57.332 -47.565,-88.747 31.607,-3.402 63.488,-3.402 95.095,0 l -0.017,0.017 c -12.182,31.393 -28.137,61.188 -47.513,88.73 z m 153.43,-58.471 c -4.011,4.54 -8.192,8.926 -12.561,13.073 -1.075,1.024 -2.202,1.997 -3.294,2.987 -4.21,3.846 -8.568,7.504 -13.073,10.974 -1.178,0.904 -2.372,1.792 -3.567,2.662 -4.642,3.413 -9.421,6.628 -14.336,9.643 l -3.413,2.065 c -5.166,3.015 -10.468,5.808 -15.906,8.38 -0.99,0.461 -1.963,0.973 -2.953,1.434 -5.666,2.56 -11.452,4.83 -17.323,6.827 -0.887,0.324 -1.707,0.683 -2.679,0.99 -5.922,1.98 -11.947,3.618 -18.091,5.12 -0.956,0.222 -1.877,0.529 -2.85,0.734 -2.338,0.512 -4.762,0.751 -7.134,1.178 18.848,-28.476 34.27,-59.078 45.943,-91.17 25.199,4.504 49.681,12.368 72.789,23.381 -0.494,0.579 -1.04,1.125 -1.552,1.722 z m 21.709,-29.61 c -26.161,-13.358 -54.106,-22.888 -82.978,-28.297 5.099,-19.725 8.294,-39.893 9.54,-60.228 H 442.88 c -2.614,31.339 -12.47,61.643 -28.791,88.525 z" />
	</g>
</g>
<g
   id="g8">
</g>
<g
   id="g10">
</g>
<g
   id="g12">
</g>
<g
   id="g14">
</g>
<g
   id="g16">
</g>
<g
   id="g18">
</g>
<g
   id="g20">
</g>
<g
   id="g22">
</g>
<g
   id="g24">
</g>
<g
   id="g26">
</g>
<g
   id="g28">
</g>
<g
   id="g30">
</g>
<g
   id="g32">
</g>
<g
   id="g34">
</g>
<g
   id="g36">
</g>
</svg>
